<svg width="36" height="36" viewBox="0 0 36 36" fill="none" xmlns="http://www.w3.org/2000/svg">
<path d="M9.94 19.493C9.60338 19.1314 9.43506 18.7325 9.43506 18.2961C9.43506 18.0842 9.4787 17.8722 9.56597 17.6603C9.65325 17.4483 9.77792 17.2738 9.94 17.1366L14.6901 12.3491C15.0018 12.0249 15.3945 11.8629 15.8683 11.8629C16.3421 11.8629 16.7348 12.0249 17.0465 12.3491C17.3831 12.6857 17.5514 13.0847 17.5514 13.546C17.5514 13.9948 17.3831 14.4 17.0465 14.7616L15.1951 16.6317H24.4335C24.8948 16.6317 25.2813 16.7938 25.593 17.1179C25.9171 17.4421 26.0792 17.8348 26.0792 18.2961C26.0792 18.7699 25.9171 19.1751 25.593 19.5117C25.2813 19.8358 24.8948 19.9979 24.4335 19.9979H15.1951L17.0465 21.8681C17.3706 22.1797 17.5327 22.5725 17.5327 23.0462C17.5327 23.2706 17.4891 23.4888 17.4018 23.7008C17.327 23.9003 17.2086 24.081 17.0465 24.2431C16.7348 24.5797 16.3421 24.7481 15.8683 24.7481C15.407 24.7481 15.0143 24.5797 14.6901 24.2431L9.94 19.493Z" fill="#2D2D2D"/>
</svg>
